<?xml version="1.0" encoding="UTF-8"?><svg id="uuid-5d88437a-2767-4163-b849-dc8db34678c4" xmlns="http://www.w3.org/2000/svg" viewBox="0 0 360 360"><rect x="216" y="45" width="99" height="99" fill="#aaef73"/><rect x="45" y="216" width="99" height="99" fill="#f98c8c"/><g id="uuid-aad01b0d-b963-41d7-adf5-d979ce8ff0a1"><g id="uuid-392fab24-b298-4991-8ed9-82600beda44e"><rect width="180" height="180" fill="#075cd8"/></g><path id="uuid-75e821fc-1c80-403d-a2db-7179ab67ff54" d="M158.23,158h-29.87l-11.88-30.89h-54.37l-11.23,30.89h-29.13L74.74,22h29.04l54.46,136.01ZM107.67,104.19l-18.74-50.47-18.37,50.47h37.11Z" fill="#fff"/></g><g id="uuid-e77e0b70-653d-42bd-8abb-ed044bfb4f4a"><g id="uuid-03ea1524-7ad4-4395-9cfd-4bdf677748fa"><rect x="180" y="180" width="180" height="180" fill="#075cd8"/></g><path id="uuid-df474be3-1287-43a9-95f3-a2290526a1c1" d="M213.04,202h54.37c10.76,0,18.79.45,24.08,1.34,5.29.9,10.02,2.77,14.19,5.61,4.17,2.85,7.65,6.63,10.44,11.36s4.17,10.04,4.17,15.91c0,6.37-1.72,12.22-5.15,17.53-3.43,5.32-8.09,9.31-13.96,11.97,8.29,2.41,14.66,6.53,19.11,12.34,4.45,5.81,6.68,12.65,6.68,20.5,0,6.19-1.44,12.2-4.31,18.04s-6.8,10.52-11.78,14.01c-4.98,3.5-11.12,5.64-18.42,6.45-4.58.5-15.62.8-33.12.93h-46.29v-136.01ZM240.5,224.63v31.45h18c10.7,0,17.35-.15,19.95-.46,4.7-.56,8.4-2.18,11.09-4.87s4.04-6.23,4.04-10.62-1.16-7.62-3.48-10.25c-2.32-2.63-5.77-4.22-10.34-4.78-2.72-.31-10.55-.46-23.47-.46h-15.77ZM240.5,278.72v36.37h25.42c9.9,0,16.17-.28,18.83-.83,4.08-.74,7.41-2.55,9.97-5.43,2.57-2.88,3.85-6.73,3.85-11.55,0-4.08-.99-7.54-2.97-10.39-1.98-2.84-4.84-4.92-8.58-6.22-3.74-1.3-11.86-1.95-24.35-1.95h-22.17Z" fill="#fff"/></g></svg>